<svg width="192" height="375" viewBox="0 0 192 375" fill="none" xmlns="http://www.w3.org/2000/svg">
<path d="M4.56561 207.066C-1.89205 200.734 1.87492 196.273 4.56561 194.834C36.2671 182.17 62.7827 177.085 72.0779 176.126M72.0779 176.126C70.9037 132.378 91.1573 62.4473 97.0279 22.1447C97.7618 -0.882996 97.7617 -0.152585 121.244 1.99761L175.547 4.87671C196.094 3.43763 190.224 9.19394 190.224 22.1456C190.958 68.1961 180.684 148.785 185.087 196.994M72.0779 176.126C107.301 184.042 185.821 175.407 185.087 196.994M185.087 196.994C189.783 244.195 189.49 308.522 188.756 337.304L183.619 338.023L180.684 275.064L177.749 212.104L136.654 230.092C139.003 238.727 139.59 329.628 139.59 374H132.985L127.115 232.971M185.087 196.994L127.849 221.458M127.115 232.971L127.849 221.458M127.115 232.971L80.8838 227.413M127.849 221.458L11.9042 209.226L13.3715 219.298L70.2431 226.134M70.2431 226.134L72.8117 321.474H78.6823L80.8838 227.413M70.2431 226.134L80.8838 227.413" stroke="#999999" stroke-width="1.4"/>
</svg>
