<svg width="50" height="53" viewBox="0 0 50 53" fill="none" xmlns="http://www.w3.org/2000/svg">
<path fill-rule="evenodd" clip-rule="evenodd" d="M0.25 0.25V5.75H9.77824L13.4449 11.25H0.25V16.75H49.75V11.25C49.75 10.7071 49.5893 10.1763 49.2881 9.72457L43.7881 1.47457C43.2781 0.709528 42.4195 0.25 41.5 0.25H0.25ZM28.1116 5.75H16.3884L19.0381 9.72457C19.3393 10.1763 19.5 10.7071 19.5 11.25H25C25 10.7071 25.1607 10.1763 25.4619 9.72457L28.1116 5.75ZM34.7218 5.75L31.0551 11.25H43.6949L40.0282 5.75H34.7218Z" fill="#202020" fill-opacity="0.5"/>
<path d="M27.75 27.75H25V22.25H36V27.75H33.25V31.9737C33.4574 32.0935 33.6613 32.2202 33.8613 32.3538C35.6702 33.5625 37.0801 35.2805 37.9127 37.2905C38.7452 39.3005 38.9631 41.5122 38.5386 43.646C38.1142 45.7798 37.0665 47.7398 35.5282 49.2782C33.9898 50.8165 32.0298 51.8642 29.896 52.2886C27.7622 52.7131 25.5505 52.4952 23.5405 51.6627C21.5305 50.8301 19.8125 49.4202 18.6038 47.6113C17.3951 45.8023 16.75 43.6756 16.75 41.5H22.25C22.25 42.5878 22.5726 43.6512 23.1769 44.5556C23.7813 45.4601 24.6402 46.1651 25.6452 46.5813C26.6502 46.9976 27.7561 47.1065 28.823 46.8943C29.8899 46.6821 30.8699 46.1583 31.6391 45.3891C32.4083 44.6199 32.9321 43.6399 33.1443 42.573C33.3565 41.5061 33.2476 40.4002 32.8313 39.3952C32.415 38.3902 31.7101 37.5313 30.8056 36.9269C29.9012 36.3226 28.8378 36 27.75 36L27.75 27.75Z" fill="#202020" fill-opacity="0.5"/>
</svg>
