<svg width="66" height="66" viewBox="0 0 66 66" fill="none" xmlns="http://www.w3.org/2000/svg">
<path fill-rule="evenodd" clip-rule="evenodd" d="M8.25 8.25V13.75H17.7782L21.4449 19.25H8.25V24.75H57.75V19.25C57.75 18.7071 57.5893 18.1763 57.2881 17.7246L51.7881 9.47457C51.2781 8.70953 50.4195 8.25 49.5 8.25H8.25ZM36.1116 13.75H24.3884L27.0381 17.7246C27.3393 18.1763 27.5 18.7071 27.5 19.25H33C33 18.7071 33.1607 18.1763 33.4619 17.7246L36.1116 13.75ZM42.7218 13.75L39.0551 19.25H51.6949L48.0282 13.75H42.7218Z" fill="#CABCB3"/>
<path d="M35.75 35.75H33V30.25H44V35.75H41.25V39.9737C41.4574 40.0935 41.6613 40.2202 41.8613 40.3538C43.6702 41.5625 45.0801 43.2805 45.9127 45.2905C46.7452 47.3005 46.9631 49.5122 46.5386 51.646C46.1142 53.7798 45.0665 55.7398 43.5282 57.2782C41.9898 58.8165 40.0298 59.8642 37.896 60.2886C35.7622 60.7131 33.5505 60.4952 31.5405 59.6627C29.5305 58.8301 27.8125 57.4202 26.6038 55.6113C25.3951 53.8023 24.75 51.6756 24.75 49.5H30.25C30.25 50.5878 30.5726 51.6512 31.1769 52.5556C31.7813 53.4601 32.6402 54.1651 33.6452 54.5813C34.6502 54.9976 35.7561 55.1065 36.823 54.8943C37.8899 54.6821 38.8699 54.1583 39.6391 53.3891C40.4083 52.6199 40.9321 51.6399 41.1443 50.573C41.3565 49.5061 41.2476 48.4002 40.8313 47.3952C40.4151 46.3902 39.7101 45.5313 38.8056 44.9269C37.9012 44.3226 36.8378 44 35.75 44L35.75 35.75Z" fill="#CABCB3"/>
</svg>
