<svg width="64" height="64" viewBox="0 0 64 64" fill="none" xmlns="http://www.w3.org/2000/svg">
<path fill-rule="evenodd" clip-rule="evenodd" d="M7.99992 5.33325C6.52716 5.33325 5.33325 6.52716 5.33325 7.99992V23.9999C5.33325 25.4727 6.52716 26.6666 7.99992 26.6666V42.6666C6.52716 42.6666 5.33325 43.8605 5.33325 45.3333V55.9999C5.33325 57.4727 6.52716 58.6666 7.99992 58.6666H31.9999C33.4727 58.6666 34.6666 57.4727 34.6666 55.9999V45.3333C34.6666 43.8605 33.4727 42.6666 31.9999 42.6666H28.3147L26.1035 38.2443C25.9549 37.947 25.8258 37.6427 25.7164 37.3333H29.3333C35.2243 37.3333 39.9999 32.5576 39.9999 26.6666H45.3333C50.3035 26.6666 54.4798 23.2672 55.6639 18.6666L63.9999 18.6666V13.3333L55.6639 13.3333C54.4798 8.73265 50.3035 5.33325 45.3333 5.33325H7.99992ZM34.6666 10.6666V21.3333H10.6666V10.6666H34.6666ZM45.3333 21.3333H39.9999V10.6666H45.3333C48.2788 10.6666 50.6666 13.0544 50.6666 15.9999C50.6666 18.9454 48.2788 21.3333 45.3333 21.3333ZM34.6666 26.6666H28.3147L26.1035 31.0889C25.9549 31.3862 25.8258 31.6905 25.7164 31.9999H29.3333C32.2788 31.9999 34.6666 29.6121 34.6666 26.6666ZM22.3518 26.6666H13.3333V42.6666H22.3518L21.3333 40.6294C19.4564 36.8757 19.4564 32.4574 21.3333 28.7037L22.3518 26.6666ZM10.6666 53.3333V47.9999H29.3333V53.3333H10.6666Z" fill="#202020" fill-opacity="0.5"/>
</svg>
