<svg width="59" height="54" viewBox="0 0 59 54" fill="none" xmlns="http://www.w3.org/2000/svg">
<path fill-rule="evenodd" clip-rule="evenodd" d="M3.00004 0.333374C1.52728 0.333374 0.333374 1.52728 0.333374 3.00004V19C0.333374 20.4728 1.52728 21.6667 3.00004 21.6667V37.6667C1.52728 37.6667 0.333374 38.8606 0.333374 40.3334V51C0.333374 52.4728 1.52728 53.6667 3.00004 53.6667H27C28.4728 53.6667 29.6667 52.4728 29.6667 51V40.3334C29.6667 38.8606 28.4728 37.6667 27 37.6667H23.3148L21.1037 33.2444C20.955 32.9471 20.8259 32.6428 20.7165 32.3334H24.3334C30.2244 32.3334 35 27.5577 35 21.6667H40.3334C45.3036 21.6667 49.4799 18.2673 50.664 13.6667L59 13.6667V8.33337L50.664 8.33337C49.4799 3.73277 45.3036 0.333374 40.3334 0.333374H3.00004ZM29.6667 5.66671V16.3334H5.66671V5.66671H29.6667ZM40.3334 16.3334H35V5.66671H40.3334C43.2789 5.66671 45.6667 8.05452 45.6667 11C45.6667 13.9456 43.2789 16.3334 40.3334 16.3334ZM29.6667 21.6667H23.3148L21.1037 26.089C20.955 26.3863 20.8259 26.6906 20.7165 27H24.3334C27.2789 27 29.6667 24.6122 29.6667 21.6667ZM17.352 21.6667H8.33337V37.6667H17.352L16.3334 35.6296C14.4565 31.8759 14.4565 27.4576 16.3334 23.7039L17.352 21.6667ZM5.66671 48.3334V43H24.3334V48.3334H5.66671Z" fill="#202020" fill-opacity="0.5"/>
</svg>
