<svg width="38" height="34" viewBox="0 0 38 34" fill="none" xmlns="http://www.w3.org/2000/svg">
<path fill-rule="evenodd" clip-rule="evenodd" d="M3.96994 0.333374H0V3.66671H3.96994L5.11162 5.95007L9.43605 20.3648C6.9401 20.645 5 22.7626 5 25.3334C5 27.5945 6.50095 29.5051 8.56088 30.1232C8.4148 30.4408 8.33333 30.7942 8.33333 31.1667C8.33333 32.5474 9.45262 33.6667 10.8333 33.6667C12.214 33.6667 13.3333 32.5474 13.3333 31.1667C13.3333 30.8745 13.2832 30.594 13.1911 30.3334H28.4756C28.3835 30.594 28.3333 30.8745 28.3333 31.1667C28.3333 32.5474 29.4526 33.6667 30.8333 33.6667C32.214 33.6667 33.3333 32.5474 33.3333 31.1667C33.3333 30.8745 33.2832 30.594 33.1911 30.3334H35V27H10C9.07953 27 8.33333 26.2539 8.33333 25.3334C8.33333 24.4129 9.07952 23.6667 9.99998 23.6667H30.6004C32.9837 23.6667 35.0361 21.9845 35.5036 19.6473L37.9023 7.65376C38.3148 5.59113 36.7372 3.66671 34.6337 3.66671H7.69672L6.95137 2.176C6.38673 1.04671 5.23252 0.333374 3.96994 0.333374ZM12.9067 20.3334L8.90672 7.00004H34.6337L32.235 18.9936C32.0792 19.7725 31.395 20.3334 30.6004 20.3334H12.9067Z" fill="#2B2D33"/>
</svg>
