<svg width="28" height="28" viewBox="0 0 28 28" fill="none" xmlns="http://www.w3.org/2000/svg">
<path fill-rule="evenodd" clip-rule="evenodd" d="M8.45833 5.25008C6.04929 5.25008 4.08333 7.21793 4.08333 9.66154C4.08333 11.2136 4.99393 12.8142 6.43071 14.4768C8.77164 17.1857 11.4823 20.0165 14 22.3401C16.5177 20.0165 19.2284 17.1857 21.5693 14.4768C23.0061 12.8142 23.9167 11.2136 23.9167 9.66154C23.9167 7.21793 21.9507 5.25008 19.5417 5.25008C18.5008 5.25008 17.5468 5.61518 16.795 6.22757C16.0017 6.87375 15.5848 7.33798 15.3531 7.62247C15.2933 7.69589 15.2429 7.76099 15.1967 7.82133C15.1887 7.83183 15.18 7.84319 15.1709 7.8551C15.1348 7.90254 15.092 7.95871 15.0553 8.00443C15.0156 8.05379 14.926 8.16467 14.805 8.26574C14.683 8.36759 14.3915 8.57624 13.9641 8.56784C13.5419 8.55953 13.2614 8.34411 13.148 8.24467C13.0329 8.14372 12.9472 8.03409 12.9091 7.98515C12.8486 7.90726 12.8163 7.86312 12.7859 7.82148C12.7467 7.76791 12.7106 7.71847 12.6211 7.60661C12.3958 7.3249 11.9876 6.86502 11.205 6.22757C10.4532 5.61518 9.49923 5.25008 8.45833 5.25008ZM1.75 9.66154C1.75 5.94372 4.74622 2.91675 8.45833 2.91675C10.0569 2.91675 11.5269 3.48034 12.6786 4.41843C13.2574 4.8899 13.6806 5.29519 13.9967 5.63375C14.3149 5.29681 14.7403 4.89174 15.3214 4.41843C16.4731 3.48034 17.9431 2.91675 19.5417 2.91675C23.2538 2.91675 26.25 5.94372 26.25 9.66154C26.25 12.0922 24.8547 14.2437 23.3348 16.0025C20.8182 18.9146 17.8787 21.9708 15.1719 24.4309C14.507 25.0351 13.493 25.0351 12.8281 24.4309C10.1213 21.9708 7.18183 18.9146 4.66525 16.0025C3.14533 14.2437 1.75 12.0922 1.75 9.66154Z" fill="#2B2D33"/>
</svg>
