<svg width="18" height="18" viewBox="0 0 18 18" fill="none" xmlns="http://www.w3.org/2000/svg">
<path d="M3.75 7.44225C3.75 11.0813 6.933 14.0903 8.34225 15.2438C8.54475 15.4088 8.646 15.4928 8.79675 15.5348C8.91375 15.5678 9.08625 15.5678 9.20325 15.5348C9.354 15.4928 9.45525 15.4095 9.65775 15.2438C11.067 14.0903 14.25 11.0813 14.25 7.44225C14.2493 6.75903 14.1131 6.08273 13.8492 5.45254C13.5853 4.82235 13.1989 4.2508 12.7125 3.771C11.7233 2.79528 10.3894 2.24878 9 2.25C7.61058 2.24878 6.27667 2.79528 5.2875 3.771C4.80106 4.25077 4.41468 4.82232 4.15076 5.45251C3.88683 6.08271 3.75062 6.75902 3.75 7.44225Z" stroke="#2B2D33" stroke-width="1.5" stroke-linecap="round" stroke-linejoin="round"/>
<path d="M7.5 6.75C7.5 7.14782 7.65804 7.52936 7.93934 7.81066C8.22064 8.09196 8.60218 8.25 9 8.25C9.39782 8.25 9.77936 8.09196 10.0607 7.81066C10.342 7.52936 10.5 7.14782 10.5 6.75C10.5 6.35218 10.342 5.97064 10.0607 5.68934C9.77936 5.40804 9.39782 5.25 9 5.25C8.60218 5.25 8.22064 5.40804 7.93934 5.68934C7.65804 5.97064 7.5 6.35218 7.5 6.75Z" stroke="#2B2D33" stroke-width="1.5" stroke-linecap="round" stroke-linejoin="round"/>
</svg>
