<svg width="18" height="18" viewBox="0 0 18 18" fill="none" xmlns="http://www.w3.org/2000/svg">
<path fill-rule="evenodd" clip-rule="evenodd" d="M0.792893 15.7929L15.7929 0.792893L17.2071 2.20711L2.20711 17.2071L0.792893 15.7929Z" fill="#E80A0A"/>
<path fill-rule="evenodd" clip-rule="evenodd" d="M3.75 2C2.7835 2 2 2.7835 2 3.75C2 4.7165 2.7835 5.5 3.75 5.5C4.7165 5.5 5.5 4.7165 5.5 3.75C5.5 2.7835 4.7165 2 3.75 2ZM0 3.75C0 1.67893 1.67893 0 3.75 0C5.82107 0 7.5 1.67893 7.5 3.75C7.5 5.82107 5.82107 7.5 3.75 7.5C1.67893 7.5 0 5.82107 0 3.75Z" fill="#E80A0A"/>
<path fill-rule="evenodd" clip-rule="evenodd" d="M14.25 12.5C13.2835 12.5 12.5 13.2835 12.5 14.25C12.5 15.2165 13.2835 16 14.25 16C15.2165 16 16 15.2165 16 14.25C16 13.2835 15.2165 12.5 14.25 12.5ZM10.5 14.25C10.5 12.1789 12.1789 10.5 14.25 10.5C16.3211 10.5 18 12.1789 18 14.25C18 16.3211 16.3211 18 14.25 18C12.1789 18 10.5 16.3211 10.5 14.25Z" fill="#E80A0A"/>
</svg>
