<svg width="30" height="34" viewBox="0 0 30 34" fill="none" xmlns="http://www.w3.org/2000/svg">
<path fill-rule="evenodd" clip-rule="evenodd" d="M15 0.333374C10.3977 0.333374 6.66671 4.06433 6.66671 8.66671C6.66671 13.2691 10.3977 17 15 17C19.6024 17 23.3334 13.2691 23.3334 8.66671C23.3334 4.06433 19.6024 0.333374 15 0.333374ZM10 8.66671C10 5.90528 12.2386 3.66671 15 3.66671C17.7615 3.66671 20 5.90528 20 8.66671C20 11.4281 17.7615 13.6667 15 13.6667C12.2386 13.6667 10 11.4281 10 8.66671Z" fill="#2B2D33"/>
<path d="M15.0002 18.6667C5.98282 18.6667 0.833374 26.3305 0.833374 33.6667H4.16671C4.16671 27.6695 8.2885 22 15.0002 22C21.7119 22 25.8334 27.6695 25.8334 33.6667H29.1667C29.1667 26.3306 24.0176 18.6667 15.0002 18.6667Z" fill="#2B2D33"/>
</svg>
