<svg width="16" height="17" viewBox="0 0 16 17" fill="none" xmlns="http://www.w3.org/2000/svg">
<g clip-path="url(#clip0_1959_9177)">
<path fill-rule="evenodd" clip-rule="evenodd" d="M5.90481 0.779533C7.47808 0.352356 9.14431 0.416022 10.6804 0.962006C12.2165 1.50799 13.5491 2.51023 14.4998 3.83453V2.24953C14.4998 2.05062 14.5788 1.85986 14.7195 1.7192C14.8601 1.57855 15.0509 1.49953 15.2498 1.49953C15.4487 1.49953 15.6395 1.57855 15.7801 1.7192C15.9208 1.85986 15.9998 2.05062 15.9998 2.24953V6.49953H11.7498C11.5509 6.49953 11.3601 6.42052 11.2195 6.27986C11.0788 6.13921 10.9998 5.94844 10.9998 5.74953C10.9998 5.55062 11.0788 5.35985 11.2195 5.2192C11.3601 5.07855 11.5509 4.99953 11.7498 4.99953H13.4768C12.6935 3.77402 11.5218 2.84665 10.1491 2.36576C8.7764 1.88488 7.2821 1.87829 5.90523 2.34703C4.52836 2.81577 3.34849 3.73276 2.55437 4.95131C1.76025 6.16986 1.39777 7.61954 1.52491 9.06844C1.65206 10.5173 2.26149 11.8817 3.25571 12.9434C4.24992 14.005 5.57147 14.7024 7.00894 14.9242C8.4464 15.146 9.91671 14.8792 11.1847 14.1666C12.4526 13.454 13.4449 12.3367 14.0028 10.9935C14.039 10.9004 14.0935 10.8155 14.163 10.7437C14.2325 10.6719 14.3156 10.6147 14.4075 10.5755C14.4995 10.5363 14.5983 10.5159 14.6982 10.5154C14.7981 10.5149 14.8971 10.5344 14.9894 10.5727C15.0817 10.611 15.1654 10.6674 15.2356 10.7385C15.3058 10.8096 15.361 10.894 15.3982 10.9868C15.4353 11.0795 15.4535 11.1788 15.4517 11.2787C15.4499 11.3786 15.4282 11.4771 15.3878 11.5685C14.8666 12.8231 14.0345 13.9242 12.97 14.7682C11.9055 15.6121 10.6436 16.1711 9.30323 16.3924C7.96289 16.6137 6.58827 16.4901 5.30894 16.0331C4.02962 15.5761 2.88773 14.8009 1.99092 13.7805C1.09412 12.7601 0.471931 11.5281 0.183015 10.2007C-0.105901 8.87328 -0.0520297 7.49415 0.339551 6.19332C0.731131 4.89249 1.44752 3.7128 2.42119 2.76546C3.39486 1.81811 4.59374 1.13532 5.90481 0.779533Z" fill="black"/>
</g>
<defs>
<clipPath id="clip0_1959_9177">
<rect width="16" height="16" fill="white" transform="translate(0 0.5)"/>
</clipPath>
</defs>
</svg>
