<svg width="24" height="24" viewBox="0 0 24 24" fill="none" xmlns="http://www.w3.org/2000/svg">
<path fill-rule="evenodd" clip-rule="evenodd" d="M21.24 2.13196C21.5176 2.01512 21.8214 1.97482 22.1199 2.01526C22.4184 2.0557 22.7005 2.1754 22.9371 2.3619C23.1736 2.5484 23.3558 2.79489 23.4647 3.0757C23.5736 3.35651 23.6053 3.66138 23.5564 3.95859L21.0085 19.413C20.7614 20.9038 19.1257 21.7587 17.7586 21.0161C16.615 20.3949 14.9164 19.4377 13.3886 18.4391C12.6247 17.9391 10.2847 16.3383 10.5723 15.1992C10.8194 14.2252 14.7513 10.5652 16.998 8.38923C17.8799 7.53433 17.4777 7.04116 16.4364 7.82754C13.8492 9.77998 9.69827 12.7491 8.32549 13.5849C7.11448 14.3218 6.48313 14.4477 5.72822 14.3218C4.35094 14.0927 3.07365 13.7377 2.03114 13.3052C0.622416 12.721 0.690942 10.7843 2.03002 10.2204L21.24 2.13196Z" fill="black"/>
</svg>
