<svg width="28" height="28" viewBox="0 0 28 28" fill="none" xmlns="http://www.w3.org/2000/svg">
<g id="trash-delete">
<path id="shape" d="M8.16699 10.5002V23.3335H19.8337V10.5002H22.167V24.5002C22.167 25.1445 21.6447 25.6668 21.0003 25.6668H7.00033C6.35599 25.6668 5.83366 25.1445 5.83366 24.5002V10.5002H8.16699ZM12.8337 10.5002V21.0002H10.5003V10.5002H12.8337ZM17.5003 10.5002V21.0002H15.167V10.5002H17.5003ZM17.5003 2.3335C18.0025 2.3335 18.4483 2.65483 18.6071 3.13123L19.507 5.83233L23.3337 5.8335V8.16683H4.66699V5.8335L8.49249 5.83233L9.39353 3.13123C9.55233 2.65483 9.99816 2.3335 10.5003 2.3335H17.5003ZM16.6594 4.66683H11.3412L10.9518 5.83233H17.0477L16.6594 4.66683Z" fill="#2B2D33"/>
</g>
</svg>
