<svg width="73" height="72" viewBox="0 0 73 72" fill="none" xmlns="http://www.w3.org/2000/svg">
<path fill-rule="evenodd" clip-rule="evenodd" d="M6.08325 15C6.08325 13.3431 7.44505 12 9.12492 12H45.6249C47.3048 12 48.6666 13.3431 48.6666 15V18.4586L59.2917 20.2052C63.6917 20.9285 66.9166 24.6832 66.9166 29.0828V54C66.9166 58.9706 62.8312 63 57.7916 63C55.0891 63 52.6609 61.8412 50.9901 60H22.0097C20.3389 61.8412 17.9108 63 15.2083 63C10.1687 63 6.08325 58.9706 6.08325 54V15ZM42.5833 18V45H15.2083C14.1417 45 13.118 45.1805 12.1666 45.5121V18H42.5833ZM15.2083 57C13.5284 57 12.1666 55.6569 12.1666 54C12.1666 52.3431 13.5284 51 15.2083 51C16.8881 51 18.2499 52.3431 18.2499 54C18.2499 55.6569 16.8881 57 15.2083 57ZM60.8332 33V29.0828C60.8332 27.6163 59.7583 26.3647 58.2916 26.1236L48.6666 24.5414V45H57.7916C58.8581 45 59.8819 45.1805 60.8332 45.5121V39H54.7499V33H60.8332ZM60.8332 54C60.8332 52.3431 59.4714 51 57.7916 51C56.1117 51 54.7499 52.3431 54.7499 54C54.7499 55.6569 56.1117 57 57.7916 57C59.4714 57 60.8332 55.6569 60.8332 54ZM24.3333 54C24.3333 52.9481 24.1503 51.9383 23.814 51H49.1858C48.8496 51.9383 48.6666 52.9481 48.6666 54H24.3333Z" fill="#8F8F8F"/>
</svg>
