<svg width="85" height="80" viewBox="0 0 85 80" fill="none" xmlns="http://www.w3.org/2000/svg">
<path fill-rule="evenodd" clip-rule="evenodd" d="M7.0835 16.6663C7.0835 14.8254 8.66915 13.333 10.6252 13.333H53.1252C55.0812 13.333 56.6668 14.8254 56.6668 16.6663V20.5093L69.0386 22.4499C74.1618 23.2536 77.9168 27.4255 77.9168 32.3139V59.9997C77.9168 65.5225 73.1599 69.9997 67.2918 69.9997C64.1451 69.9997 61.3178 68.7122 59.3723 66.6663H25.628C23.6825 68.7122 20.8553 69.9997 17.7085 69.9997C11.8405 69.9997 7.0835 65.5225 7.0835 59.9997V16.6663ZM49.5835 19.9997V49.9997H17.7085C16.4667 49.9997 15.2746 50.2002 14.1668 50.5687V19.9997H49.5835ZM17.7085 63.333C15.7525 63.333 14.1668 61.8406 14.1668 59.9997C14.1668 58.1587 15.7525 56.6663 17.7085 56.6663C19.6645 56.6663 21.2502 58.1587 21.2502 59.9997C21.2502 61.8406 19.6645 63.333 17.7085 63.333ZM70.8335 36.6663V32.3139C70.8335 30.6844 69.5818 29.2938 67.8741 29.0259L56.6668 27.2679V49.9997H67.2918C68.5337 49.9997 69.7257 50.2002 70.8335 50.5687V43.333H63.7502V36.6663H70.8335ZM70.8335 59.9997C70.8335 58.1587 69.2478 56.6663 67.2918 56.6663C65.3358 56.6663 63.7502 58.1587 63.7502 59.9997C63.7502 61.8406 65.3358 63.333 67.2918 63.333C69.2478 63.333 70.8335 61.8406 70.8335 59.9997ZM28.3335 59.9997C28.3335 58.8309 28.1204 57.7089 27.7289 56.6663H57.2714C56.8799 57.7089 56.6668 58.8309 56.6668 59.9997H28.3335Z" fill="#CABCB3"/>
</svg>
