<svg width="33" height="24" viewBox="0 0 33 24" fill="none" xmlns="http://www.w3.org/2000/svg">
<path fill-rule="evenodd" clip-rule="evenodd" d="M11 5C11 4.44772 11.4477 4 12 4H24C24.5523 4 25 4.44772 25 5V6.15288L28.4932 6.73508C29.9398 6.97617 31 8.22774 31 9.69426V18C31 19.6569 29.6569 21 28 21C27.1115 21 26.3132 20.6137 25.7639 20H16.2361C15.6868 20.6137 14.8885 21 14 21C12.3431 21 11 19.6569 11 18V5ZM23 6V15H14C13.6494 15 13.3128 15.0602 13 15.1707V6H23ZM14 19C13.4477 19 13 18.5523 13 18C13 17.4477 13.4477 17 14 17C14.5523 17 15 17.4477 15 18C15 18.5523 14.5523 19 14 19ZM29 11V9.69426C29 9.20542 28.6466 8.78823 28.1644 8.70787L25 8.18047V15H28C28.3506 15 28.6872 15.0602 29 15.1707V13H27V11H29ZM29 18C29 17.4477 28.5523 17 28 17C27.4477 17 27 17.4477 27 18C27 18.5523 27.4477 19 28 19C28.5523 19 29 18.5523 29 18ZM17 18C17 17.6494 16.9398 17.3128 16.8293 17H25.1707C25.0602 17.3128 25 17.6494 25 18H17Z" fill="#2B2D33"/>
<path d="M9 10L3 10" stroke="black" stroke-width="1.5"/>
<path d="M9 16L3 16" stroke="black" stroke-width="1.5"/>
<path d="M9 13L0 13" stroke="black" stroke-width="1.5"/>
</svg>
