<svg width="61" height="51" viewBox="0 0 61 51" fill="none" xmlns="http://www.w3.org/2000/svg">
<path fill-rule="evenodd" clip-rule="evenodd" d="M0.083374 3C0.083374 1.34315 1.44517 0 3.12504 0H39.625C41.3049 0 42.6667 1.34315 42.6667 3V6.45864L53.2918 8.20524C57.6918 8.92852 60.9167 12.6832 60.9167 17.0828V42C60.9167 46.9706 56.8313 51 51.7917 51C49.0892 51 46.6611 49.8412 44.9902 48H16.0099C14.339 49.8412 11.9109 51 9.20837 51C4.16878 51 0.083374 46.9706 0.083374 42V3ZM36.5834 6V33H9.20837C8.14186 33 7.11808 33.1805 6.16671 33.5121V6H36.5834ZM9.20837 45C7.52851 45 6.16671 43.6569 6.16671 42C6.16671 40.3431 7.52851 39 9.20837 39C10.8882 39 12.25 40.3431 12.25 42C12.25 43.6569 10.8882 45 9.20837 45ZM54.8334 21V17.0828C54.8334 15.6163 53.7584 14.3647 52.2917 14.1236L42.6667 12.5414V33H51.7917C52.8582 33 53.882 33.1805 54.8334 33.5121V27H48.75V21H54.8334ZM54.8334 42C54.8334 40.3431 53.4716 39 51.7917 39C50.1118 39 48.75 40.3431 48.75 42C48.75 43.6569 50.1118 45 51.7917 45C53.4716 45 54.8334 43.6569 54.8334 42ZM18.3334 42C18.3334 40.9481 18.1504 39.9383 17.8141 39H43.1859C42.8497 39.9383 42.6667 40.9481 42.6667 42H18.3334Z" fill="#8F8F8F"/>
</svg>
