<svg width="38" height="34" viewBox="0 0 38 34" fill="none" xmlns="http://www.w3.org/2000/svg">
<circle cx="21" cy="17" r="17" fill="#4FAD50" fill-opacity="0.24"/>
<path fill-rule="evenodd" clip-rule="evenodd" d="M11 9C11 8.44772 11.4477 8 12 8H24C24.5523 8 25 8.44772 25 9V10.1529L28.4932 10.7351C29.9398 10.9762 31 12.2277 31 13.6943V22C31 23.6569 29.6569 25 28 25C27.1115 25 26.3132 24.6137 25.7639 24H16.2361C15.6868 24.6137 14.8885 25 14 25C12.3431 25 11 23.6569 11 22V9ZM23 10V19H14C13.6494 19 13.3128 19.0602 13 19.1707V10H23ZM14 23C13.4477 23 13 22.5523 13 22C13 21.4477 13.4477 21 14 21C14.5523 21 15 21.4477 15 22C15 22.5523 14.5523 23 14 23ZM29 15V13.6943C29 13.2054 28.6466 12.7882 28.1644 12.7079L25 12.1805V19H28C28.3506 19 28.6872 19.0602 29 19.1707V17H27V15H29ZM29 22C29 21.4477 28.5523 21 28 21C27.4477 21 27 21.4477 27 22C27 22.5523 27.4477 23 28 23C28.5523 23 29 22.5523 29 22ZM17 22C17 21.6494 16.9398 21.3128 16.8293 21H25.1707C25.0602 21.3128 25 21.6494 25 22H17Z" fill="#2B2D33"/>
<path d="M9 14L3 14" stroke="black" stroke-width="1.5"/>
<path d="M9 20H3" stroke="black" stroke-width="1.5"/>
<path d="M9 17L0 17" stroke="black" stroke-width="1.5"/>
</svg>
