<svg width="64" height="64" viewBox="0 0 64 64" fill="none" xmlns="http://www.w3.org/2000/svg">
<path fill-rule="evenodd" clip-rule="evenodd" d="M8.00016 5.33301C6.5274 5.33301 5.3335 6.52692 5.3335 7.99967V23.9997C5.3335 25.4724 6.5274 26.6663 8.00016 26.6663V42.6663C6.5274 42.6663 5.3335 43.8602 5.3335 45.333V55.9997C5.3335 57.4724 6.5274 58.6663 8.00016 58.6663H32.0002C33.4729 58.6663 34.6668 57.4724 34.6668 55.9997V45.333C34.6668 43.8602 33.4729 42.6663 32.0002 42.6663H28.3149L26.1038 38.244C25.9551 37.9467 25.8261 37.6424 25.7166 37.333H29.3335C35.2245 37.333 40.0002 32.5574 40.0002 26.6663H45.3335C50.3037 26.6663 54.48 23.2669 55.6641 18.6663L64.0002 18.6663V13.333L55.6641 13.333C54.48 8.7324 50.3037 5.33301 45.3335 5.33301H8.00016ZM34.6668 10.6663V21.333H10.6668V10.6663H34.6668ZM45.3335 21.333H40.0002V10.6663H45.3335C48.279 10.6663 50.6668 13.0542 50.6668 15.9997C50.6668 18.9452 48.279 21.333 45.3335 21.333ZM34.6668 26.6663H28.3149L26.1038 31.0886C25.9551 31.386 25.8261 31.6903 25.7166 31.9997H29.3335C32.279 31.9997 34.6668 29.6119 34.6668 26.6663ZM22.3521 26.6663H13.3335V42.6663H22.3521L21.3335 40.6292C19.4566 36.8755 19.4566 32.4572 21.3335 28.7035L22.3521 26.6663ZM10.6668 53.333V47.9997H29.3335V53.333H10.6668Z" fill="#CABCB3"/>
</svg>
