<svg width="36" height="32" viewBox="0 0 36 32" fill="none" xmlns="http://www.w3.org/2000/svg">
<path fill-rule="evenodd" clip-rule="evenodd" d="M10.0833 3.49996C6.64184 3.49996 3.83333 6.31118 3.83333 9.80204C3.83333 12.0192 5.13418 14.3059 7.18672 16.681C10.5309 20.5509 14.4033 24.5949 18 27.9143C21.5967 24.5949 25.4691 20.5509 28.8133 16.681C30.8658 14.3059 32.1667 12.0192 32.1667 9.80204C32.1667 6.31118 29.3582 3.49996 25.9167 3.49996C24.4297 3.49996 23.0669 4.02153 21.9929 4.89637C20.8596 5.81948 20.2639 6.48266 19.933 6.88909C19.8475 6.99397 19.7755 7.08697 19.7096 7.17317C19.6981 7.18817 19.6857 7.2044 19.6728 7.22142C19.6211 7.28918 19.56 7.36943 19.5075 7.43475C19.4509 7.50525 19.3229 7.66366 19.1499 7.80804C18.9757 7.95354 18.5593 8.25162 17.9487 8.23961C17.3456 8.22774 16.9448 7.92 16.7828 7.77795C16.6184 7.63373 16.496 7.47712 16.4416 7.40719C16.3551 7.29592 16.309 7.23287 16.2655 7.17338C16.2096 7.09686 16.158 7.02622 16.0301 6.86642C15.7082 6.46399 15.1251 5.80701 14.0071 4.89637C12.9331 4.02153 11.5703 3.49996 10.0833 3.49996ZM0.5 9.80204C0.5 4.49087 4.78032 0.166626 10.0833 0.166626C12.367 0.166626 14.467 0.971759 16.1123 2.31188C16.9392 2.98542 17.5437 3.56439 17.9953 4.04806C18.4498 3.56671 19.0576 2.98804 19.8877 2.31188C21.533 0.971759 23.633 0.166626 25.9167 0.166626C31.2197 0.166626 35.5 4.49087 35.5 9.80204C35.5 13.2745 33.5067 16.3479 31.3354 18.8605C27.7403 23.0208 23.541 27.3868 19.6742 30.9011C18.7244 31.7643 17.2756 31.7643 16.3258 30.9011C12.459 27.3868 8.25975 23.0208 4.66464 18.8605C2.49333 16.3479 0.5 13.2745 0.5 9.80204Z" fill="#2B2D33"/>
</svg>
