<svg width="34" height="34" viewBox="0 0 34 34" fill="none" xmlns="http://www.w3.org/2000/svg">
<circle cx="17" cy="17" r="17" fill="#E80A0A" fill-opacity="0.2"/>
<path fill-rule="evenodd" clip-rule="evenodd" d="M8.79289 23.7929L23.7929 8.79289L25.2071 10.2071L10.2071 25.2071L8.79289 23.7929Z" fill="#E80A0A"/>
<path fill-rule="evenodd" clip-rule="evenodd" d="M11.75 10C10.7835 10 10 10.7835 10 11.75C10 12.7165 10.7835 13.5 11.75 13.5C12.7165 13.5 13.5 12.7165 13.5 11.75C13.5 10.7835 12.7165 10 11.75 10ZM8 11.75C8 9.67893 9.67893 8 11.75 8C13.8211 8 15.5 9.67893 15.5 11.75C15.5 13.8211 13.8211 15.5 11.75 15.5C9.67893 15.5 8 13.8211 8 11.75Z" fill="#E80A0A"/>
<path fill-rule="evenodd" clip-rule="evenodd" d="M22.25 20.5C21.2835 20.5 20.5 21.2835 20.5 22.25C20.5 23.2165 21.2835 24 22.25 24C23.2165 24 24 23.2165 24 22.25C24 21.2835 23.2165 20.5 22.25 20.5ZM18.5 22.25C18.5 20.1789 20.1789 18.5 22.25 18.5C24.3211 18.5 26 20.1789 26 22.25C26 24.3211 24.3211 26 22.25 26C20.1789 26 18.5 24.3211 18.5 22.25Z" fill="#E80A0A"/>
</svg>
